<svg height="72" viewBox="0 0 72 72" width="72" xmlns="http://www.w3.org/2000/svg"><g fill="none" fill-rule="evenodd"><rect fill="#79e2f2" height="72" rx="36" width="72"/><g transform="translate(19 16)"><path d="m34 40h-33c-.608 0-1-.3869091-1-1v-36c0-.61309091.392-1 1-1h33c.608 0 1 .38690909 1 1v36c0 .6130892-.392 1-1 1z" fill="#6553c0"/><path d="m30.4347826 36.5217391h-26.08695651c-.48 0-.86956522-.3895652-.86956522-.8695652v-29.56521738c0-.48.38956522-.86956522.86956522-.86956522h26.08695651c.48 0 .8695652.38956522.8695652.86956522v29.56521738c0 .4799983-.3895652.8695652-.8695652.8695652z" fill="#e6fcff"/><path d="m24.6763285 9h-3.5555556c-.4906666 0-.8888888-.3584-.8888888-.8 0-1.3232-1.1964445-2.4-2.6666667-2.4s-2.6666667 1.0768-2.6666667 2.4c0 .4416-.3982222.8-.8888889.8h-3.5555555c-.49066669 0-.88888891-.3584-.88888891-.8v-7.4c0-.4416.39822222-.8.88888891-.8h14.2222222c.4906667 0 .8888889.3584.8888889.8v7.4c0 .4416-.3982222.8-.8888889.8z" fill="#998dd9"/><g fill="#403294"><path d="m23.2173913 14.7826087h-13.65217391c-.48086956 0-.86956522-.3895652-.86956522-.8695652s.38869566-.8695652.86956522-.8695652h13.65217391c.4808696 0 .8695652.3895652.8695652.8695652s-.3886956.8695652-.8695652.8695652z"/><path d="m25.2173913 21.7391304h-15.65217391c-.48086956 0-.86956522-.3895652-.86956522-.8695652s.38869566-.8695652.86956522-.8695652h15.65217391c.4808696 0 .8695652.3895652.8695652.8695652s-.3886956.8695652-.8695652.8695652z"/><path d="m23.2173913 28.6956522h-13.65217391c-.48086956 0-.86956522-.3895652-.86956522-.8695652s.38869566-.8695653.86956522-.8695653h13.65217391c.4808696 0 .8695652.3895653.8695652.8695653s-.3886956.8695652-.8695652.8695652z"/></g></g></g></svg>