<svg height="72" viewBox="0 0 72 72" width="72" xmlns="http://www.w3.org/2000/svg"><g fill="none" fill-rule="evenodd"><rect fill="#79e2f2" height="72" rx="36" width="72"/><g transform="translate(18 13)"><path d="m13 8v14.6748l-11.18848 15.38477c-1.1123 1.52832-1.26953 3.52441-.41211 5.20898s2.56543 2.73145 4.45606 2.73145h24.28906c1.89062 0 3.59863-1.04688 4.45605-2.73145s.7002-3.68066-.41211-5.20898l-11.18847-15.38477v-14.6748z" fill="#e6fcff"/><path d="m26.125 8c.55273 0 1-.44727 1-1v-6c0-.55273-.44727-1-1-1h-16.125c-.55273 0-1 .44727-1 1v6c0 .55273.44727 1 1 1h3 10z" fill="#e6fcff"/><path d="m24.10834 31h-12.2168l-6.84564 9.41309c-.22559.30957-.25586.69922-.08203 1.04102.1748.341788.50781.54589.8916.54589h24.28906c.38379 0 .7168-.2041.8916-.5459.17383-.3418.14355-.73145-.08301-1.04199z" fill="#998dd9"/><path d="m13 8h10v3h-10z" fill="#b3f5ff"/><g fill="#eae7ff"><path d="m15.41421 36.58579c.78105.781045.78105 2.047375 0 2.828424-.78105.781048-2.04737.781048-2.82842 0-.78105-.781049-.78105-2.047379 0-2.828424.78105-.78105 2.04737-.78105 2.82842 0" opacity=".6"/><path d="m22.41421 34.58579c.78105.78105.78105 2.04737 0 2.828424-.78105.781048-2.04737.781048-2.82842 0-.78105-.781054-.78105-2.047374 0-2.828424s2.04737-.78105 2.82842 0" opacity=".6"/></g></g></g></svg>