<svg height="72" viewBox="0 0 72 72" width="72" xmlns="http://www.w3.org/2000/svg"><g fill="none" fill-rule="evenodd"><rect fill="#79e2f2" height="72" rx="36" width="72"/><g transform="translate(15 15)"><path d="m23 18h-8c-.55225 0-1 .44775-1 1v18c0 .55225.44775 1 1 1h8c.55225 0 1-.44775 1-1v-18c0-.55225-.44775-1-1-1z" fill="#6553c0"/><path d="m9 26h-8c-.55225 0-1 .44775-1 1v10c0 .55225.44775 1 1 1h8c.55225 0 1-.44775 1-1v-10c0-.55225-.44775-1-1-1z" fill="#998dd9"/><path d="m42.74316 10.33105-9-10c-.37891-.42188-1.10742-.42188-1.48633 0l-9 10c-.26416.29346-.33105.71484-.17041 1.07568s.51856.59327.91358.59327h4v25c0 .55225.44775 1 1 1h8c.55225 0 1-.44775 1-1v-25h4c.39502 0 .75293-.23242.91357-.59326s.09375-.78223-.17041-1.07569z" fill="#403294"/></g></g></svg>