<svg height="72" viewBox="0 0 72 72" width="72" xmlns="http://www.w3.org/2000/svg"><g fill="none" fill-rule="evenodd"><rect fill="#79e2f2" height="72" rx="36" width="72"/><g transform="translate(14 14)"><path d="m28 28c-.29688 0-.58203-.13232-.77441-.3667l-9-11c-.18652-.22852-.2627-.52832-.20801-.81836.05469-.29053.23438-.5415.49219-.68652l19.29003-10.85498c.38867-.22021.87988-.15283 1.19727.16455 5.90723 5.90771 5.90723 15.52051 0 21.42822-.14453.14453-.33008.24121-.53125.27734l-10.29004 1.84082c-.05859.01075-.11719.01563-.17578.01563zm10.29004-2.84082h.00977z" fill="#e6fcff"/><path d="m39.56934 25.47363c-.00391-.00391-.00781-.00781-.01172-.01172l-13.67969-13.99414-3.07031-9.38184c-.08496-.25879-.27148-.47168-.5166-.58984-5.78907-2.78759-12.73926-1.60742-17.28809 2.9419-5.15137 5.15137-5.91016 13.24854-1.80469 19.25342.03223.04785.06934.09326.11035.13477l15.86133 16.206539 2.8457 2.84521c.72364.72363 1.68555 1.122071 2.70899 1.122071 1.02246 0 1.98438-.39844 2.70801-1.12207.79102-.7915 1.16309-1.84619 1.11523-2.88477 1.08203.04932 2.12207-.35205 2.88672-1.11816.79685-.79631 1.16938-1.8539 1.11816-2.88672 1.03906.05225 2.09277-.32471 2.88475-1.11572.79053-.79052 1.16869-1.8403 1.11818-2.89258 1.05469.04248 2.11719-.34326 2.93945-1.16504 1.47755-1.47705 1.51075-3.82324.07423-5.34131z" fill="#6553c0"/><g fill="#e6fcff"><path d="m22.03558 33.16467h-.00006c-1.10529-1.10535-2.8974-1.10535-4.00275 0 1.10535-1.10535 1.10535-2.89746 0-4.00281s-2.89746-1.10535-4.00281 0c1.10535-1.10535 1.10535-2.89746 0-4.00281s-2.89746-1.10535-4.00281 0c1.10535-1.10535 1.10535-2.89746 0-4.00281s-2.89746-1.10535-4.00281 0l-3.00214 3.00214c-1.10535 1.10535-1.10535 2.89746 0 4.00281s2.89746 1.10535 4.00281 0c-1.10535 1.10535-1.10535 2.89746 0 4.00281s2.89746 1.10535 4.00281 0c-1.10535 1.10535-1.10535 2.89746 0 4.002809 1.10535 1.10535 2.89746 1.10535 4.00281 0-1.10535 1.10535-1.10535 2.89746 0 4.00275v.00006c1.10535 1.10535 2.89746 1.10535 4.00281 0l3.00214-3.00214c1.10535-1.105349 1.10535-2.897459 0-4.002809z"/><path d="m38.99707 4.43799c-5.9082-5.90771-15.52051-5.90625-21.42871 0l-10.00684 10.00683c-.2002.19971-.30566.47461-.29199.75684.01465.28223.14746.54541.36621.72412.10645.0874 1.46875 1.16113 3.79688 1.16113 2.10449-.00049 4.99805-.87842 8.46289-4.15674 2.28223 1.10498 9.75977 4.17529 14.4043-.46826.04004-.03955.07617-.08203.1084-.12793l4.69727-6.60986c.28222-.39746.23632-.94141-.10841-1.28613z"/></g></g></g></svg>