<svg height="20" viewBox="0 0 20 20" width="20" xmlns="http://www.w3.org/2000/svg"><g fill="none" fill-rule="evenodd"><circle cx="10" cy="10" fill="#0747a6" opacity=".8" r="10"/><g fill="#fff" fill-rule="nonzero" transform="translate(5.833333 5)"><path d="m1.94444444.97222222c0 .51625-.34513888.96055556-.97270833.96055556-.590625 0-.97173611-.41902778-.97173611-.93527778 0-.52986111.36944444-.9975.97222222-.9975s.96055556.44236111.97222222.97222222zm-1.94444444 7.77777778v-6.31944444h1.94444444v6.31944444z"/><path d="m2.91666667 4.59083333c0-.75104166-.02479167-1.37861111-.04958334-1.920625h1.74708334l.08652777.83756945h.03694445c.24597222-.39423611.84875-.97222222 1.85791667-.97222222 1.23083333 0 2.15444444.82395833 2.15444444 2.59680555v3.61763889h-1.94444444v-3.33520833c0-.77486111-.29506945-1.36597223-.97222223-1.36597223-.51625 0-.77486111.41805556-.91048611.76270834-.04958333.12347222-.06173611.29555555-.06173611.468125v3.47034722h-1.94444444z"/></g></g></svg>