<svg height="26" viewBox="0 0 26 26" width="26" xmlns="http://www.w3.org/2000/svg"><g fill="none" fill-rule="evenodd" transform="translate(1 1)"><circle cx="12" cy="12" opacity=".8" r="12" stroke="#00b8d9" stroke-width="2"/><path d="m17.5213043 9.9273913c.0052174.1056522.007174.2126087.007174.3182609 0 3.2543478-2.4763044 7.0056521-7.0043479 7.0056521-1.39108692 0-2.68434779-.4076086-3.7741304-1.1067391.19304348.0228261.38869565.0345652.58695652.0345652 1.15434783 0 2.21543478-.393913 3.05739128-1.0532608-1.0767391-.0202174-1.98652171-.731087-2.29956519-1.7093479.15.0280435.30456522.0430435.46304348.0430435.225 0 .44282608-.0293478.64891304-.0854348-1.12630435-.2269565-1.97478261-1.2215217-1.97478261-2.415 0-.0104347 0-.0202174 0-.0306521.33195652.1845652.71217391.2954347 1.11521739.3084782-.66065217-.4421739-1.09565217-1.1947826-1.09565217-2.04978259 0-.45065217.12130435-.87391304.33391304-1.23782608 1.21369565 1.49021739 3.02869562 2.46978257 5.07456522 2.57282607-.0417391-.1806522-.0632609-.3678261-.0632609-.56152173 0-1.35913043 1.1015218-2.46065217 2.4613044-2.46065217.7082608 0 1.3480435.29804348 1.7973913.77673913.5602174-.11086956 1.0871739-.31565217 1.5632609-.5973913-.1839131.57456521-.5745653 1.05717391-1.0826087 1.36173913.4982608-.06.9717391-.19108696 1.413913-.38739131-.33.49434783-.7473913.92739131-1.2286957 1.27369565z" fill="#00b8d9" fill-rule="nonzero"/></g></svg>