<svg height="26" viewBox="0 0 26 26" width="26" xmlns="http://www.w3.org/2000/svg"><g fill="none" fill-rule="evenodd"><circle cx="13" cy="13" opacity=".8" r="12" stroke="#00b8d9" stroke-width="2"/><g fill="#00b8d9" fill-rule="nonzero" transform="translate(8 7)"><path d="m2.33333333 1.16666667c0 .6195-.41416666 1.15266666-1.16725 1.15266666-.70875 0-1.16608333-.50283333-1.16608333-1.12233333 0-.63583333.44333333-1.197 1.16666667-1.197.72333333 0 1.15266666.53083333 1.16666666 1.16666667zm-2.33333333 9.33333333v-7.58333333h2.33333333v7.58333333z"/><path d="m3.5 5.509c0-.90125-.02975-1.65433333-.0595-2.30475h2.0965l.10383333 1.00508333h.04433334c.29516666-.47308333 1.0185-1.16666666 2.2295-1.16666666 1.477 0 2.58533333.98875 2.58533333 3.11616666v4.34116667h-2.33333333v-4.00225c0-.92983333-.35408334-1.63916667-1.16666667-1.63916667-.6195 0-.92983333.50166667-1.09258333.91525-.0595.14816667-.07408334.35466667-.07408334.56175v4.16441667h-2.33333333z"/></g></g></svg>