<?xml version="1.0" encoding="UTF-8"?>
<svg width="26px" height="26px" viewBox="0 0 26 26" version="1.1" xmlns="http://www.w3.org/2000/svg" xmlns:xlink="http://www.w3.org/1999/xlink">
    <!-- Generator: Sketch 47.1 (45422) - http://www.bohemiancoding.com/sketch -->
    <title>social-link</title>
    <desc>Created with Sketch.</desc>
    <defs></defs>
    <g id="Web" stroke="none" stroke-width="1" fill="none" fill-rule="evenodd">
        <g id="background-code" transform="translate(-1223.000000, -713.000000)">
            <g id="social" transform="translate(1223.000000, 713.000000)">
                <g id="Group-7" transform="translate(1.000000, 1.000000)">
                    <circle id="Oval-2" stroke="#00B8D9" stroke-width="2" opacity="0.800000012" cx="12" cy="12" r="12"></circle>
                    <g id="link" transform="translate(6.750000, 6.750000)">
                        <path d="M4.725,2.1 L6.0375,0.7875 C7.035,-0.21 8.715,-0.21 9.7125,0.7875 L9.7125,0.7875 C10.71,1.785 10.71,3.465 9.7125,4.4625 L8.4,5.775" id="Fill-1" fill-opacity="0" fill="#000000"></path>
                        <path d="M4.725,2.1 L6.0375,0.7875 C7.035,-0.21 8.715,-0.21 9.7125,0.7875 L9.7125,0.7875 C10.71,1.785 10.71,3.465 9.7125,4.4625 L8.4,5.775" id="Stroke-3" stroke="#00B8D9" stroke-width="1.5" stroke-linecap="round" stroke-linejoin="round"></path>
                        <path d="M5.775,8.4 L4.4625,9.7125 C3.465,10.71 1.785,10.71 0.7875,9.7125 L0.7875,9.7125 C-0.21,8.715 -0.21,7.035 0.7875,6.0375 L2.1,4.725" id="Fill-4" fill-opacity="0" fill="#000000"></path>
                        <path d="M5.775,8.4 L4.4625,9.7125 C3.465,10.71 1.785,10.71 0.7875,9.7125 L0.7875,9.7125 C-0.21,8.715 -0.21,7.035 0.7875,6.0375 L2.1,4.725" id="Stroke-5" stroke="#00B8D9" stroke-width="1.5" stroke-linecap="round" stroke-linejoin="round"></path>
                        <path d="M3.675,6.825 L6.825,3.675" id="Fill-6" fill-opacity="0" fill="#000000"></path>
                        <path d="M3.675,6.825 L6.825,3.675" id="Stroke-7" stroke="#00B8D9" stroke-width="1.5" stroke-linecap="round" stroke-linejoin="round"></path>
                    </g>
                </g>
            </g>
        </g>
    </g>
</svg>