<svg height="20" viewBox="0 0 20 20" width="20" xmlns="http://www.w3.org/2000/svg"><g fill="none" fill-rule="evenodd"><circle cx="10" cy="10" fill="#0747a6" opacity=".8" r="10"/><path d="m14.601087 8.27282609c.0043478.08804348.0059782.17717391.0059782.26521739 0 2.71195652-2.0635869 5.83804352-5.8369565 5.83804352-1.15923913 0-2.23695653-.339674-3.1451087-.9222827.16086957.0190218.32391304.0288044.48913043.0288044.96195653 0 1.84619566-.3282609 2.54782609-.8777174-.89728261-.0168478-1.65543478-.6092391-1.91630435-1.4244565.125.0233695.25380435.0358695.38586957.0358695.1875 0 .36902174-.0244565.54076087-.0711956-.93858696-.1891304-1.64565218-1.0179348-1.64565218-2.0125 0-.00869566 0-.01684783 0-.02554348.27663044.15380435.59347827.24619565.92934783.25706521-.55054348-.36847826-.91304348-.99565217-.91304348-1.70815217 0-.37554348.10108696-.72826087.27826087-1.03152174 1.01141305 1.24184783 2.52391305 2.05815218 4.22880435 2.14402174-.0347826-.15054348-.0527174-.30652174-.0527174-.46793478 0-1.1326087.9179348-2.05054348 2.051087-2.05054348.5902174 0 1.1233695.24836957 1.4978261.64728261.4668478-.09239131.9059782-.26304348 1.3027173-.49782609-.1532608.47880435-.4788043.88097826-.9021739 1.13478261.4152174-.05.8097826-.15923913 1.1782609-.32282609-.275.41195653-.6228261.77282609-1.023913 1.06141305z" fill="#fff" fill-rule="nonzero"/></g></svg>