<svg height="116" viewBox="0 0 128 116" width="128" xmlns="http://www.w3.org/2000/svg"><g fill="none"><path d="m126.47 52.12-26.3-45.74c-2.0124394-3.56880604-5.7635648-5.80578554-9.86-5.88h-52.61c-4.0970111.07219478-7.8490638 2.30972722-9.86 5.88l-26.31 45.62c-2.0353442 3.5417451-2.0353442 7.8982549 0 11.44l26.3 46c1.9903239 3.619541 5.7323947 5.93082 9.86 6.09h52.61c4.1273864-.141675 7.8761765-2.443364 9.87-6.06l26.3-45.74c2.049489-3.5986561 2.049489-8.0113439 0-11.61z" fill="#4285f4"/><path d="m38.64 0-.86 8-4.23 3.6-11.55-11.6-21.91 32.2.07 7.8 9.9 9.9-.7 6.1 29.51 29.5h11.43c4.1273864-.141675 7.8761765-2.4433637 9.87-6.06l21.14-36.77z" fill="#000" opacity=".07" transform="translate(40 30)"/><g fill="#fff" transform="translate(33 30)"><path d="m45.34 13.34 3.85-6.67-3.85-6.67h-8.34l3.85 6.67-3.85 6.67z"/><path d="m29.3 0h-13.69l-15.61 27.03 7.51 13 15.4-26.69h6.39l3.85-6.67z"/><path d="m16.85 43-3.85 6.67 3.85 6.68h8.34l-3.85-6.68 3.85-6.67z"/><path d="m54.64 16-15.4 26.69h-6.39l-3.85 6.67 3.85 6.68h13.7l15.6-27.04z"/></g></g></svg>