<svg enable-background="new 0 0 2080 2325.5" viewBox="0 0 2080 2325.5" xmlns="http://www.w3.org/2000/svg" xmlns:xlink="http://www.w3.org/1999/xlink"><linearGradient id="a" gradientTransform="matrix(9.2563 0 0 -9.3468 -119299.5781 -252400.0313)" gradientUnits="userSpaceOnUse" x1="12914.6377" x2="12991.0264" y1="-27007.6797" y2="-27073.4023"><stop offset="0" stop-color="#5ca0d5"/><stop offset="1" stop-color="#316a99"/></linearGradient><linearGradient id="b" gradientTransform="matrix(9.2563 0 0 -9.3468 -119299.5781 -252400.0313)" gradientUnits="userSpaceOnUse" x1="13020.6973" x2="12993.4189" y1="-27113.1328" y2="-27074.5391"><stop offset="0" stop-color="#ffd43e"/><stop offset="1" stop-color="#ffe975"/></linearGradient><radialGradient id="c" cx="-83039.6641" cy="-13866.3984" gradientTransform="matrix(0 -3.9477 -17.3558 0 -239744.5313 -326357.7188)" gradientUnits="userSpaceOnUse" r="20.3396"><stop offset="0" stop-color="#b8b8b8" stop-opacity=".498"/><stop offset="1" stop-color="#7f8080" stop-opacity="0"/></radialGradient><path d="m227.1 1988.2c0-92.2-26.3-138.2-79-139.9-21.4-1.6-41.1 3.3-60.9 9.9-16.5 4.9-26.3 11.5-31.3 16.5v217.2c32.9 21.4 62.5 31.3 88.9 29.6 54.3-5 82.3-49.4 82.3-133.3zm64.2 3.3c0 46.1-9.9 83.9-32.9 115.2-24.7 34.6-57.6 52.7-102 52.7-32.9 1.6-65.8-9.9-100.4-31.3v197.5l-56-19.8v-439.4c9.9-11.5 21.4-21.4 34.6-29.6 32.9-19.7 74.1-29.6 120.1-29.6 42.8 0 77.3 18.1 100.4 52.7 24.6 37.8 36.2 78.9 36.2 131.6zm340.6 130c0 62.5-6.6 105.3-18.1 128.4-13.2 23-36.2 42.8-70.8 57.6-29.6 11.5-59.2 18.1-92.2 18.1l-9.9-34.6c34.6-4.9 57.6-9.9 70.8-13.2 26.3-9.9 46.1-23 55.9-42.8 8.2-14.8 11.5-44.4 11.5-87.2v-14.8c-37.8 18.1-79 26.3-120.1 26.3-28 0-52.7-8.2-72.4-26.3-23-18.1-34.6-42.8-34.6-72.4v-232l55.9-19.7v233.7c0 24.7 8.2 44.4 24.7 57.6s36.2 19.7 62.5 19.7 52.7-9.9 82.3-29.6v-273.3h55.9zm217.2 36.2h-18.1c-31.3 0-55.9-8.2-74.1-23-18.1-14.8-26.3-36.2-26.3-62.5v-220.5h-37.8v-34.7h37.8v-93.8l55.9-19.7v113.5h62.5v34.6h-62.5v217.2c0 21.4 4.9 36.2 16.5 44.4 9.9 6.6 24.7 11.5 46.1 13.2zm339-5h-55.9v-215.6c0-21.4-4.9-41.1-14.8-55.9-11.5-18.1-28-26.3-49.4-26.3-26.3 0-57.6 13.2-95.4 41.1v258.4h-55.9v-515.1l55.9-18.1v233.7c36.2-26.3 74.1-39.5 116.8-39.5 29.6 0 52.7 9.9 72.4 29.6 18.1 19.7 28 44.4 28 74.1zm296.2-174.4c0-34.6-6.6-64.2-19.7-87.2-16.5-28-39.5-42.8-74.1-44.4-60.9 3.3-92.2 47.7-92.2 131.6 0 39.5 6.6 70.8 19.7 97.1 16.5 32.9 41.1 49.4 74.1 49.4 60.9-1.7 92.2-49.4 92.2-146.5zm60.9 0c0 49.4-13.2 92.2-37.8 125.1-28 36.2-67.5 55.9-115.2 55.9-49.4 0-87.2-18.1-115.2-55.9-24.7-32.9-37.8-74.1-37.8-125.1 0-47.7 13.2-87.2 41.1-118.5 29.6-34.6 65.8-51 111.9-51s83.9 16.5 113.5 51c26.3 32.9 39.5 72.4 39.5 118.5zm320.9 174.4h-55.9v-227.1c0-24.7-8.2-44.4-23-57.6s-34.6-21.4-60.9-19.7c-26.3 0-52.7 9.9-75.7 26.3v281.4h-55.9v-288c31.3-23 60.9-39.5 88.9-46.1 26.3-6.6 47.7-9.9 67.5-9.9 13.2 0 26.3 1.6 37.8 3.3 21.4 4.9 39.5 14.8 52.7 28 14.8 14.8 23 34.6 23 55.9z" fill="#656565"/><path d="m908.4.3c-52.7 0-103.7 4.9-148.1 13.2-131.6 23-154.7 70.8-154.7 161.3v118.5h309.4v39.5h-424.6c-88.9 0-167.8 54.3-192.5 156.3-28 118.5-29.6 190.9 0 314.3 21.4 92.2 74.1 156.3 164.6 156.3h107v-141.5c0-102 88.9-192.5 192.5-192.5h307.7c85.6 0 154.7-70.8 154.7-158v-294.6c0-83.9-70.8-146.5-154.7-161.3-54.4-8.2-108.7-13.1-161.3-11.5zm-167.9 93.8c31.3 0 57.6 26.3 57.6 59.2s-26.3 59.2-57.6 59.2-57.6-26.3-57.6-59.2 24.7-59.2 57.6-59.2z" fill="url(#a)"/><path d="m1262.2 329.4v136.6c0 107-90.5 195.8-194.2 195.8h-307.7c-83.9 0-154.7 72.4-154.7 158v294.6c0 83.9 72.4 133.3 154.7 158 97.1 29.6 190.9 34.6 309.4 0 77.3-23 154.7-67.5 154.7-158v-118.5h-309.5v-39.5h464.1c88.9 0 123.4-62.5 154.7-156.3 32.9-97.1 31.3-189.2 0-314.3-21.4-88.9-64.2-156.3-154.7-156.3zm-174.5 745.5c31.3 0 57.6 26.3 57.6 59.2s-26.3 59.2-57.6 59.2-57.6-26.3-57.6-59.2 26.4-59.2 57.6-59.2z" fill="url(#b)"/><path d="m1973 1767.7h9.9v-60.9h23v-8.2h-55.9v8.2h23zm42.8 0h8.2v-55.9l18.1 55.9h9.9l18.1-55.9v55.9h9.9v-69.1h-11.5l-21.4 59.2-18.1-59.2h-13.2z" fill="#656565"/><path d="m1332.9 1471.5c0 44.4-185.9 80.6-414.7 80.6s-414.7-36.2-414.7-80.6 185.9-80.6 414.7-80.6 414.7 36.1 414.7 80.6z" fill="url(#c)" opacity=".444"/></svg>