<?xml version="1.0" encoding="UTF-8"?>
<svg width="72px" height="72px" viewBox="0 0 72 72" version="1.1" xmlns="http://www.w3.org/2000/svg" xmlns:xlink="http://www.w3.org/1999/xlink">
    <!-- Generator: Sketch 47.1 (45422) - http://www.bohemiancoding.com/sketch -->
    <title>accountability</title>
    <desc>Created with Sketch.</desc>
    <defs></defs>
    <g id="Symbols" stroke="none" stroke-width="1" fill="none" fill-rule="evenodd">
        <g id="accountability">
            <rect id="Rectangle-3" fill="#79E2F2" x="0" y="0" width="72" height="72" rx="36"></rect>
            <g id="Page-1" transform="translate(19.000000, 16.000000)">
                <path d="M34,40 L1,40 C0.392,40 0,39.6130909 0,39 L0,3 C0,2.38690909 0.392,2 1,2 L34,2 C34.608,2 35,2.38690909 35,3 L35,39 C35,39.6130892 34.608,40 34,40 Z" id="Fill-1" fill="#6553C0"></path>
                <path d="M30.4347826,36.5217391 L4.34782609,36.5217391 C3.86782609,36.5217391 3.47826087,36.1321739 3.47826087,35.6521739 L3.47826087,6.08695652 C3.47826087,5.60695652 3.86782609,5.2173913 4.34782609,5.2173913 L30.4347826,5.2173913 C30.9147826,5.2173913 31.3043478,5.60695652 31.3043478,6.08695652 L31.3043478,35.6521739 C31.3043478,36.1321722 30.9147826,36.5217391 30.4347826,36.5217391 Z" id="Fill-3" fill="#E6FCFF"></path>
                <path d="M24.6763285,9 L21.1207729,9 C20.6301063,9 20.2318841,8.6416 20.2318841,8.2 C20.2318841,6.8768 19.0354396,5.8 17.5652174,5.8 C16.0949952,5.8 14.8985507,6.8768 14.8985507,8.2 C14.8985507,8.6416 14.5003285,9 14.0096618,9 L10.4541063,9 C9.96343961,9 9.56521739,8.6416 9.56521739,8.2 L9.56521739,0.8 C9.56521739,0.3584 9.96343961,0 10.4541063,0 L24.6763285,0 C25.1669952,0 25.5652174,0.3584 25.5652174,0.8 L25.5652174,8.2 C25.5652174,8.6416 25.1669952,9 24.6763285,9 Z" id="Fill-4" fill="#998DD9"></path>
                <path d="M23.2173913,14.7826087 L9.56521739,14.7826087 C9.08434783,14.7826087 8.69565217,14.3930435 8.69565217,13.9130435 C8.69565217,13.4330435 9.08434783,13.0434783 9.56521739,13.0434783 L23.2173913,13.0434783 C23.6982609,13.0434783 24.0869565,13.4330435 24.0869565,13.9130435 C24.0869565,14.3930435 23.6982609,14.7826087 23.2173913,14.7826087 Z" id="Fill-5" fill="#403294"></path>
                <path d="M25.2173913,21.7391304 L9.56521739,21.7391304 C9.08434783,21.7391304 8.69565217,21.3495652 8.69565217,20.8695652 C8.69565217,20.3895652 9.08434783,20 9.56521739,20 L25.2173913,20 C25.6982609,20 26.0869565,20.3895652 26.0869565,20.8695652 C26.0869565,21.3495652 25.6982609,21.7391304 25.2173913,21.7391304 Z" id="Fill-6" fill="#403294"></path>
                <path d="M23.2173913,28.6956522 L9.56521739,28.6956522 C9.08434783,28.6956522 8.69565217,28.306087 8.69565217,27.826087 C8.69565217,27.346087 9.08434783,26.9565217 9.56521739,26.9565217 L23.2173913,26.9565217 C23.6982609,26.9565217 24.0869565,27.346087 24.0869565,27.826087 C24.0869565,28.306087 23.6982609,28.6956522 23.2173913,28.6956522 Z" id="Fill-7" fill="#403294"></path>
            </g>
        </g>
    </g>
</svg>