<?xml version="1.0" encoding="UTF-8"?>
<svg width="72px" height="72px" viewBox="0 0 72 72" version="1.1" xmlns="http://www.w3.org/2000/svg" xmlns:xlink="http://www.w3.org/1999/xlink">
    <!-- Generator: Sketch 47.1 (45422) - http://www.bohemiancoding.com/sketch -->
    <title>experimentation</title>
    <desc>Created with Sketch.</desc>
    <defs></defs>
    <g id="Symbols" stroke="none" stroke-width="1" fill="none" fill-rule="evenodd">
        <g id="experimentation">
            <rect id="Rectangle-3" fill="#79E2F2" x="0" y="0" width="72" height="72" rx="36"></rect>
            <g id="Page-1" transform="translate(18.000000, 13.000000)">
                <path d="M13,8 L13,22.6748 L1.81152,38.05957 C0.69922,39.58789 0.54199,41.58398 1.39941,43.26855 C2.25683,44.95312 3.96484,46 5.85547,46 L30.14453,46 C32.03515,46 33.74316,44.95312 34.60058,43.26855 C35.458,41.58398 35.30078,39.58789 34.18847,38.05957 L23,22.6748 L23,8 L13,8 Z" id="Fill-1" fill="#E6FCFF"></path>
                <path d="M26.125,8 C26.67773,8 27.125,7.55273 27.125,7 L27.125,1 C27.125,0.44727 26.67773,0 26.125,0 L10,0 C9.44727,0 9,0.44727 9,1 L9,7 C9,7.55273 9.44727,8 10,8 L13,8 L23,8 L26.125,8 Z" id="Fill-3" fill="#E6FCFF"></path>
                <path d="M24.10834,31 L11.89154,31 L5.0459,40.41309 C4.82031,40.72266 4.79004,41.11231 4.96387,41.45411 C5.13867,41.795898 5.47168,42 5.85547,42 L30.14453,42 C30.52832,42 30.86133,41.7959 31.03613,41.4541 C31.20996,41.1123 31.17968,40.72265 30.95312,40.41211 L24.10834,31 Z" id="Fill-4" fill="#998DD9"></path>
                <polygon id="Fill-5" fill="#B3F5FF" style="mix-blend-mode: multiply;" points="13 8 23 8 23 11 13 11"></polygon>
                <path d="M15.41421,36.58579 C16.19526,37.366835 16.19526,38.633165 15.41421,39.414214 C14.63316,40.195262 13.36684,40.195262 12.58579,39.414214 C11.80474,38.633165 11.80474,37.366835 12.58579,36.58579 C13.36684,35.80474 14.63316,35.80474 15.41421,36.58579" id="Fill-6" fill="#EAE7FF" opacity="0.600000024"></path>
                <path d="M22.41421,34.58579 C23.19526,35.36684 23.19526,36.63316 22.41421,37.414214 C21.63316,38.195262 20.36684,38.195262 19.58579,37.414214 C18.80474,36.63316 18.80474,35.36684 19.58579,34.58579 C20.36684,33.80474 21.63316,33.80474 22.41421,34.58579" id="Fill-7" fill="#EAE7FF" opacity="0.600000024"></path>
            </g>
        </g>
    </g>
</svg>