<svg width="20px" height="20px" viewBox="0 0 20 20" version="1.1" xmlns="http://www.w3.org/2000/svg" xmlns:xlink="http://www.w3.org/1999/xlink"><!-- Generator: Sketch 48.2 (47327) - http://www.bohemiancoding.com/sketch -->  <title>social/linkedin</title><desc>Created with Sketch.</desc><defs></defs><g id="Symbols" stroke="none" stroke-width="1" fill="none" fill-rule="evenodd"><g id="social/linkedin"><g id="Group-4"><circle id="Oval-2" fill="#0747A6" opacity="0.800000012" cx="10" cy="10" r="10"></circle><g id="Group-3" transform="translate(5.833333, 5.000000)" fill="#FFFFFF" fill-rule="nonzero"><path d="M1.94444444,0.972222222 C1.94444444,1.48847222 1.59930556,1.93277778 0.971736111,1.93277778 C0.381111111,1.93277778 0,1.51375 0,0.9975 C0,0.467638889 0.369444444,0 0.972222222,0 C1.575,0 1.93277778,0.442361111 1.94444444,0.972222222 Z M0,8.75 L0,2.43055556 L1.94444444,2.43055556 L1.94444444,8.75 L0,8.75 Z" id="Shape"></path><path d="M2.91666667,4.59083333 C2.91666667,3.83979167 2.891875,3.21222222 2.86708333,2.67020833 L4.61416667,2.67020833 L4.70069444,3.50777778 L4.73763889,3.50777778 C4.98361111,3.11354167 5.58638889,2.53555556 6.59555556,2.53555556 C7.82638889,2.53555556 8.75,3.35951389 8.75,5.13236111 L8.75,8.75 L6.80555556,8.75 L6.80555556,5.41479167 C6.80555556,4.63993056 6.51048611,4.04881944 5.83333333,4.04881944 C5.31708333,4.04881944 5.05847222,4.466875 4.92284722,4.81152778 C4.87326389,4.935 4.86111111,5.10708333 4.86111111,5.27965278 L4.86111111,8.75 L2.91666667,8.75 L2.91666667,4.59083333 Z" id="Shape"></path></g></g></g></g></svg>
