<svg height="20" viewBox="0 0 20 20" width="20" xmlns="http://www.w3.org/2000/svg" xmlns:xlink="http://www.w3.org/1999/xlink"><mask id="a" fill="#fff"><path d="m0 0h19.7448485v19.2573333h-19.7448485z" fill="#fff" fill-rule="evenodd"/></mask><path d="m9.87187879 0c-5.45151515 0-9.87212121 4.42-9.87212121 9.87333333 0 4.36121217 2.82848484 8.06121217 6.75212121 9.36727277.49393939.090303.67393939-.2145455.67393939-.4763637 0-.2339394-.00848485-.8551515-.01333333-1.6787879-2.74606061.5963637-3.32545455-1.3236363-3.32545455-1.3236363-.44909091-1.1406061-1.09636363-1.4436364-1.09636363-1.4436364-.89636364-.6127273.06787878-.600606.06787878-.600606.9909091.070303 1.51212122 1.0175757 1.51212122 1.0175757.88060606 1.5084849 2.31030303 1.0727273 2.87333333.8206061.08969697-.6381818.34424242-1.0733334.62666667-1.32-2.19212122-.2490909-4.4969697-1.0963637-4.4969697-4.87939396 0-1.07757576.38484848-1.95878788 1.01636364-2.64909091-.10181819-.24969697-.44060606-1.25333334.09636363-2.61272728 0 0 .82909091-.26545454 2.71515152 1.01212122.78727272-.21939394 1.63212121-.32848485 2.47151515-.33272728.83818179.00424243 1.68303029.11333334 2.47151519.33272728 1.8848484-1.27757576 2.7121212-1.01212122 2.7121212-1.01212122.5387879 1.35939394.2 2.36303031.0981818 2.61272728.6327273.69030303 1.0151515 1.57151515 1.0151515 2.64909091 0 3.79272726-2.3084848 4.62727276-4.5078788 4.87151516.3545455.3048485.670303.9072727.670303 1.8284848 0 1.319394-.0121212 2.3842425-.0121212 2.7078788 0 .2642424.1775758.5715152.6787879.4751515 3.919394-1.3084848 6.7460606-5.0060606 6.7460606-9.36606057 0-5.45333333-4.420606-9.87333333-9.87333331-9.87333333" fill="#396cb8" fill-rule="evenodd" mask="url(#a)"/></svg>