<?xml version="1.0" encoding="UTF-8"?>
<svg width="72px" height="72px" viewBox="0 0 72 72" version="1.1" xmlns="http://www.w3.org/2000/svg" xmlns:xlink="http://www.w3.org/1999/xlink">
    <!-- Generator: Sketch 47.1 (45422) - http://www.bohemiancoding.com/sketch -->
    <title>impact</title>
    <desc>Created with Sketch.</desc>
    <defs></defs>
    <g id="Symbols" stroke="none" stroke-width="1" fill="none" fill-rule="evenodd">
        <g id="impact">
            <rect id="Rectangle-3" fill="#79E2F2" x="0" y="0" width="72" height="72" rx="36"></rect>
            <g id="Page-1" transform="translate(15.000000, 15.000000)">
                <path d="M23,18 L15,18 C14.44775,18 14,18.44775 14,19 L14,37 C14,37.55225 14.44775,38 15,38 L23,38 C23.55225,38 24,37.55225 24,37 L24,19 C24,18.44775 23.55225,18 23,18 Z" id="Fill-1" fill="#6553C0"></path>
                <path d="M9,26 L1,26 C0.44775,26 0,26.44775 0,27 L0,37 C0,37.55225 0.44775,38 1,38 L9,38 C9.55225,38 10,37.55225 10,37 L10,27 C10,26.44775 9.55225,26 9,26 Z" id="Fill-3" fill="#998DD9"></path>
                <path d="M42.74316,10.33105 L33.74316,0.33105 C33.36425,-0.09083 32.63574,-0.09083 32.25683,0.33105 L23.25683,10.33105 C22.99267,10.62451 22.92578,11.04589 23.08642,11.40673 C23.24706,11.76757 23.60498,12 24,12 L28,12 L28,37 C28,37.55225 28.44775,38 29,38 L37,38 C37.55225,38 38,37.55225 38,37 L38,12 L42,12 C42.39502,12 42.75293,11.76758 42.91357,11.40674 C43.07421,11.0459 43.00732,10.62451 42.74316,10.33105 Z" id="Fill-4" fill="#403294"></path>
            </g>
        </g>
    </g>
</svg>