<svg height="26" viewBox="0 0 26 26" width="26" xmlns="http://www.w3.org/2000/svg"><g fill="none" fill-rule="evenodd"><circle cx="13" cy="13" opacity=".8" r="12" stroke="#00b8d9" stroke-width="2"/><g transform="translate(7.75 7.75)"><path d="m4.725 2.1 1.3125-1.3125c.9975-.9975 2.6775-.9975 3.675 0 .9975.9975.9975 2.6775 0 3.675l-1.3125 1.3125" fill="none"/><path d="m4.725 2.1 1.3125-1.3125c.9975-.9975 2.6775-.9975 3.675 0 .9975.9975.9975 2.6775 0 3.675l-1.3125 1.3125" stroke="#00b8d9" stroke-linecap="round" stroke-linejoin="round" stroke-width="1.5"/><path d="m5.775 8.4-1.3125 1.3125c-.9975.9975-2.6775.9975-3.675 0-.9975-.9975-.9975-2.6775 0-3.675l1.3125-1.3125" fill="none"/><path d="m5.775 8.4-1.3125 1.3125c-.9975.9975-2.6775.9975-3.675 0-.9975-.9975-.9975-2.6775 0-3.675l1.3125-1.3125" stroke="#00b8d9" stroke-linecap="round" stroke-linejoin="round" stroke-width="1.5"/><path d="m3.675 6.825 3.15-3.15" fill="none"/><path d="m3.675 6.825 3.15-3.15" stroke="#00b8d9" stroke-linecap="round" stroke-linejoin="round" stroke-width="1.5"/></g></g></svg>